<?xml version="1.0" encoding="UTF-8" standalone="no"?>
<!-- Do not edit this file with editors other than draw.io -->

<!--
 SPDX-FileCopyrightText: Copyright 2025 Arm Limited and/or its affiliates <open-source-office@arm.com>
 SPDX-License-Identifier: Apache-2.0
-->

<svg xmlns:ev="http://www.w3.org/2001/xml-events" viewBox="0 0 670 927" width="670" height="927" xmlns:xlink="http://www.w3.org/1999/xlink" xmlns="http://www.w3.org/2000/svg"><defs/><g id="page1" transform="translate(5.5,5.5)"><rect y="0" width="660" height="917" fill="#ffffff" x="0"/><path id="shape1" fill-rule="nonzero" stroke="#333e48" stroke-width="1" fill="#95d600" transform="translate(123.311100,320.283200)" d="M.0,.0L137.0,.0L137.0,106.6L.0,106.6L.0,.0z"/><path id="shape3" fill-rule="nonzero" stroke="#333e48" stroke-width="1" fill="#e5eceb" transform="translate(133.512000,175.283000)" d="M.0,.0L120.0,.0L120.0,60.0L.0,60.0L.0,.0z"/><path id="shape4" fill-rule="nonzero" stroke="#333e48" stroke-width="1" fill="#0091bd" transform="translate(133.512000,75.284000)" d="M.0,.0L120.0,.0L120.0,60.0L.0,60.0L.0,.0z"/><path id="shape5" fill-rule="nonzero" stroke="#333e48" stroke-width="1" fill="#e5eceb" transform="translate(338.454300,543.283000)" d="M.0,.0L145.5,.0L145.5,90.0L.0,90.0L.0,.0z"/><path id="shape6" fill-rule="nonzero" stroke="#333e48" stroke-width="1" fill="#95d600" transform="translate(360.488200,543.283000)" d="M.0,.0L102.0,.0L102.0,46.0L.0,46.0L.0,.0z"/><path id="shape7" fill-rule="nonzero" stroke="#333e48" stroke-width="1" fill="#95d600" transform="translate(509.168700,543.283000)" d="M.0,.0L141.0,.0L141.0,90.0L.0,90.0L.0,.0z"/><path id="shape8" fill-rule="nonzero" stroke="#333e48" stroke-width="1" fill="#7d868c" transform="translate(338.454300,633.283000)" d="M.0,.0L145.5,.0L145.5,70.0L.0,70.0L.0,.0z"/><path id="shape9" fill-rule="nonzero" stroke="#333e48" stroke-width="1" fill="#7d868c" transform="translate(509.168700,663.283000)" d="M.0,.0L141.0,.0L141.0,40.0L.0,40.0L.0,.0z"/><path id="shape11" stroke="#333e48" stroke-width="0.66666698455810547" stroke-dasharray="11,5" fill="none" transform="translate(298.583000,8.783000)" d="M.0,707.6L.0,521.9L.0,.0"/><path id="shape12" fill-rule="nonzero" stroke="#333e48" stroke-width="1" fill="#95d600" transform="translate(509.168700,633.283000)" d="M.0,.0L141.0,.0L141.0,30.0L.0,30.0L.0,.0z"/><path id="shape13" fill-rule="nonzero" stroke="#333e48" stroke-width="1" fill="#95d600" transform="translate(73.512000,543.283000)" d="M.0,.0L120.0,.0L120.0,60.0L.0,60.0L.0,.0z"/><g id="shape14" transform="translate(150.520100,77.354200)"><text style="fill:#000000;font-family:Lato,PingFang SC,Mircrosoft YaHei,Arial;font-size:18.00pt" xml:space="preserve"><tspan y="23.8" textLength="26.0" style="font-size:12.00pt" x="33.4">ML </tspan><tspan y="42.8" textLength="79.0" style="font-size:12.00pt" x="5.4">Framework</tspan></text></g><g id="shape15" transform="translate(147.795100,178.705200)"><text style="fill:#000000;font-family:Lato,PingFang SC,Mircrosoft YaHei,Arial;font-size:18.00pt" xml:space="preserve"><tspan y="24.0" textLength="44.0" style="font-size:12.00pt" x="24.4">Game </tspan><tspan y="43.0" textLength="47.0" style="font-size:12.00pt" x="21.4">Engine</tspan></text></g><g id="shape16" transform="translate(194.178000,135.284000)"><path stroke="#333e48" stroke-width="1.3333300352096558" fill="none" d="M.0,.0L.0,33.1"/><path stroke="#333e48" stroke-width="1" stroke-linecap="round" fill="#333e48" d="M3.5,33.1L.0,40.0L-3.5,33.1L3.5,33.1"/></g><g id="shape17" transform="translate(123.311100,321.283300)"><text style="fill:#000000;font-family:Lato,PingFang SC,Mircrosoft YaHei,Arial;font-size:18.00pt" xml:space="preserve"><tspan y="20.0" textLength="122.0" style="font-size:12.00pt" x="7.5">Model Converter </tspan></text></g><g id="shape18" transform="translate(141.815000,363.614000)"><path fill-rule="nonzero" stroke="#333e48" stroke-width="1" fill="#95d600" d="M.0,.0L100.0,.0L100.0,46.0L.0,46.0L.0,.0z"/><text style="fill:#000000;font-family:Lato,PingFang SC,Mircrosoft YaHei,Arial;font-size:18.00pt" xml:space="preserve"><tspan y="20.0" textLength="84.0" style="font-size:12.00pt" x="8.0">VGF Library</tspan><tspan y="39.0" textLength="57.0" style="font-size:12.00pt" x="21.5">Encoder</tspan></text></g><path id="shape19" stroke="#333e48" stroke-width="1.3333300352096558" fill="none" transform="translate(134.457000,466.110000)" d="M.0,.0L449.5,.0"/><g id="group20" transform="translate(347.358300,466.110400)"><g id="shape21" transform="translate(59.039200,-0.000000)"><path stroke="#333e48" stroke-width="1.3333300352096558" fill="none" d="M.0,.0L.0,70.2"/><path stroke="#333e48" stroke-width="1" stroke-linecap="round" fill="#333e48" d="M3.5,70.2L.0,77.2L-3.5,70.2L3.5,70.2"/></g><g id="shape22" transform="translate(-7.000000,26.275600)"><path fill-rule="nonzero" fill="#ffffff" d="M.0,.0L132.3,.0L132.3,26.6L.0,26.6L.0,.0z"/><text style="fill:#000000;font-family:Lato,PingFang SC,Mircrosoft YaHei,Arial;font-size:18.00pt" xml:space="preserve"><tspan y="20.0" textLength="86.0" style="font-size:12.00pt" x="23.1">Deployment</tspan></text></g></g><g id="group23" transform="translate(529.850300,466.110400)"><g id="shape24" transform="translate(53.968300,0.000000)"><path stroke="#333e48" stroke-width="1.3333300352096558" fill="none" d="M.0,.0L-0.5,70.2"/><path stroke="#333e48" stroke-width="1" stroke-linecap="round" fill="#333e48" d="M2.9,70.3L-0.6,77.2L-4.0,70.2L2.9,70.3"/></g><g id="shape25" transform="translate(0.000000,25.913400)"><path fill-rule="nonzero" fill="#ffffff" d="M.0,.0L107.7,.0L107.7,27.3L.0,27.3L.0,.0z"/><text style="fill:#000000;font-family:Lato,PingFang SC,Mircrosoft YaHei,Arial;font-size:18.00pt" xml:space="preserve"><tspan y="20.0" textLength="82.0" style="font-size:12.00pt" x="12.8">Exploratory</tspan></text></g></g><g id="shape26" transform="translate(83.905700,550.385400)"><text style="fill:#000000;font-family:Lato,PingFang SC,Mircrosoft YaHei,Arial;font-size:18.00pt" xml:space="preserve"><tspan y="20.0" textLength="84.0" style="font-size:12.00pt" x="7.6">VGF Library</tspan><tspan y="39.0" textLength="78.0" style="font-size:12.00pt" x="10.6">Dump_Tool</tspan></text></g><g id="shape27" transform="translate(363.370700,543.284000)"><text style="fill:#000000;font-family:Lato,PingFang SC,Mircrosoft YaHei,Arial;font-size:18.00pt" xml:space="preserve"><tspan y="20.0" textLength="84.0" style="font-size:12.00pt" x="4.6">VGF Library</tspan><tspan y="39.0" textLength="59.0" style="font-size:12.00pt" x="17.1">Decoder</tspan></text></g><g id="shape28" transform="translate(378.134100,596.610000)"><text style="fill:#000000;font-family:Lato,PingFang SC,Mircrosoft YaHei,Arial;font-size:18.00pt" xml:space="preserve"><tspan y="20.0" textLength="41.0" style="font-size:12.00pt" x="12.6">Game</tspan></text></g><g id="shape29" transform="translate(333.157500,635.798700)"><text style="fill:#e5eceb;font-family:Lato,PingFang SC,Mircrosoft YaHei,Arial;font-size:18.00pt" xml:space="preserve"><tspan y="20.0" textLength="77.0" style="font-size:12.00pt" x="39.5">Vulkan API</tspan><tspan y="39.0" textLength="115.0" style="font-size:12.00pt" x="20.5">Graph extension</tspan><tspan y="58.0" textLength="117.0" style="font-size:12.00pt" x="19.5">Tensor extension</tspan></text></g><path id="shape30" fill-rule="nonzero" stroke="#333e48" stroke-width="1" fill="#95d600" transform="translate(530.842900,543.283000)" d="M.0,.0L104.8,.0L104.8,46.0L.0,46.0L.0,.0z"/><g id="shape31" transform="translate(535.850200,543.283000)"><text style="fill:#000000;font-family:Lato,PingFang SC,Mircrosoft YaHei,Arial;font-size:18.00pt" xml:space="preserve"><tspan y="20.0" textLength="84.0" style="font-size:12.00pt" x="5.3">VGF Library</tspan><tspan y="39.0" textLength="59.0" style="font-size:12.00pt" x="17.8">Decoder</tspan></text></g><g id="shape32" transform="translate(513.927000,597.609800)"><text style="fill:#000000;font-family:Lato,PingFang SC,Mircrosoft YaHei,Arial;font-size:18.00pt" xml:space="preserve"><tspan y="20.0" textLength="113.0" style="font-size:12.00pt" x="9.2">Scenario Runner</tspan></text></g><g id="shape33" transform="translate(524.919200,634.944400)"><text style="fill:#000000;font-family:Lato,PingFang SC,Mircrosoft YaHei,Arial;font-size:18.00pt" xml:space="preserve"><tspan y="20.0" textLength="112.0" style="font-size:12.00pt" x="4.8">Emulation Layer</tspan></text></g><g id="shape34" transform="translate(513.927000,669.999500)"><text style="fill:#e5eceb;font-family:Lato,PingFang SC,Mircrosoft YaHei,Arial;font-size:18.00pt" xml:space="preserve"><tspan y="20.0" textLength="77.0" style="font-size:12.00pt" x="27.6">Vulkan API</tspan></text></g><g id="shape35" transform="translate(525.122700,744.850400)"><text style="fill:#000000;font-family:Lato,PingFang SC,Mircrosoft YaHei,Arial;font-size:18.00pt" xml:space="preserve"><tspan y="23.1" textLength="27.0" style="font-size:12.00pt" x="7.1">Key</tspan></text></g><path id="shape36" stroke="#323232" stroke-width="1" fill="none" transform="translate(440.213000,744.850200)" d="M.0,.0L211.1,.0L211.1,162.5L.0,162.5L.0,.0z"/><path id="shape37" fill-rule="nonzero" stroke="#323232" stroke-width="1" fill="#e5eceb" transform="translate(458.084650,813.757150)" d="M.0,.0L18.3,.0L18.3,18.1L.0,18.1L.0,.0z"/><g id="shape38" transform="translate(482.353500,813.757150)"><text style="fill:#000000;font-family:Lato,PingFang SC,Mircrosoft YaHei,Arial;font-size:18.00pt" xml:space="preserve"><tspan y="15.6" textLength="41.0" style="font-size:12.00pt" x="4.3">Game</tspan></text></g><g id="group39" transform="translate(457.537300,778.087700)"><g id="shape40" transform="translate(24.595500,1.921200)"><text style="fill:#000000;font-family:Lato,PingFang SC,Mircrosoft YaHei,Arial;font-size:18.00pt" xml:space="preserve"><tspan y="21.4" textLength="105.0" style="font-size:12.00pt" x="4.1">ML Framework</tspan></text></g></g><path id="shape41" fill-rule="nonzero" stroke="#323232" stroke-width="1" fill="#0091bd" transform="translate(457.983650,786.354150)" d="M.0,.0L18.3,.0L18.3,18.1L.0,18.1L.0,.0z"/><g id="group42" transform="translate(458.536300,834.536700)"><g id="shape43" transform="translate(23.137000,7.849450)"><text style="fill:#000000;font-family:Lato,PingFang SC,Mircrosoft YaHei,Arial;font-size:18.00pt" xml:space="preserve"><tspan y="15.6" textLength="147.0" style="font-size:12.00pt" x="4.3">ML-SDK components</tspan></text></g></g><path id="shape44" fill-rule="nonzero" stroke="#323232" stroke-width="1" fill="#95d600" transform="translate(458.983650,842.803150)" d="M.0,.0L18.3,.0L18.3,18.1L.0,18.1L.0,.0z"/><g id="group45" transform="translate(478.626400,869.012410)"><g id="group46" transform="translate(0.000100,0.000000)"><g id="shape47" transform="translate(4.471400,1.596510)"><text style="fill:#000000;font-family:Lato,PingFang SC,Mircrosoft YaHei,Arial;font-size:18.00pt" xml:space="preserve"><tspan y="15.9" textLength="77.0" style="font-size:12.00pt" x="4.4">Vulkan API</tspan></text></g></g></g><path id="shape48" fill-rule="nonzero" stroke="#323232" stroke-width="1" fill="#7d868c" transform="translate(458.983650,870.439150)" d="M.0,.0L18.3,.0L18.3,18.1L.0,18.1L.0,.0z"/><g id="shape49" transform="translate(199.377700,15.212100)"><text style="fill:#000000;font-family:Lato,PingFang SC,Mircrosoft YaHei,Arial;font-size:18.00pt" xml:space="preserve"><tspan y="20.2" textLength="49.0" style="font-size:12.00pt" x="34.0">Offline</tspan></text></g><g id="shape50" transform="translate(310.425700,15.212100)"><text style="fill:#000000;font-family:Lato,PingFang SC,Mircrosoft YaHei,Arial;font-size:18.00pt" xml:space="preserve"><tspan y="20.2" textLength="72.0" style="font-size:12.00pt" x="4.0">On-device</tspan></text></g><g id="group51" transform="translate(125.036000,235.283000)"><g id="shape52" transform="translate(65.235900,-0.000000)"><path stroke="#333e48" stroke-width="1.3333300352096558" fill="none" d="M.0,.0L.0,78.1"/><path stroke="#333e48" stroke-width="1" stroke-linecap="round" fill="#333e48" d="M3.5,78.1L.0,85.0L-3.5,78.1L3.5,78.1"/></g><g id="shape53" transform="translate(0.000000,15.252000)"><path fill-rule="nonzero" fill="#ffffff" d="M.0,.0L140.7,.0L140.7,43.0L.0,43.0L.0,.0z"/><text style="fill:#000000;font-family:Lato,PingFang SC,Mircrosoft YaHei,Arial;font-size:18.00pt" xml:space="preserve"><tspan y="20.0" textLength="128.0" style="font-size:12.00pt" x="7.9">Asset deployment </tspan><tspan y="39.0" textLength="55.0" style="font-size:12.00pt" x="42.9">pipeline</tspan></text></g></g><g id="shape54" transform="translate(134.457000,466.110000)"><path stroke="#333e48" stroke-width="1.3333300352096558" fill="none" d="M.0,.0L.0,70.2"/><path stroke="#333e48" stroke-width="1" stroke-linecap="round" fill="#333e48" d="M3.5,70.2L.0,77.2L-3.5,70.2L3.5,70.2"/></g><g id="group55" transform="translate(66.614700,466.109400)"><g id="shape56" transform="translate(0.000000,26.897700)"><path fill-rule="nonzero" fill="#ffffff" d="M.0,.0L146.5,.0L146.5,26.8L.0,26.8L.0,.0z"/><text style="fill:#000000;font-family:Lato,PingFang SC,Mircrosoft YaHei,Arial;font-size:18.00pt" xml:space="preserve"><tspan y="20.0" textLength="134.0" style="font-size:12.00pt" x="6.2">Debug/Exploratory</tspan></text></g></g><path id="shape57" stroke="#333e48" stroke-width="1.3333300352096558" fill="none" transform="translate(195.370000,426.845000)" d="M.0,.0L.0,39.5"/></g></svg>
